Normalized EMG Linear Envelopes
nRows=223
nColumns=4

endheader
time	 med_gas_r	  soleus_r	 tib_ant_r	
2.69456	  0.003492	  0.005886	  0.001558	
2.72782	  0.003572	  0.005718	  0.001553	
2.76109	  0.003637	  0.005595	  0.001557	
2.79435	  0.003658	  0.005528	  0.001562	
2.82762	  0.003627	  0.005502	  0.001562	
2.86089	  0.003577	  0.005516	  0.001557	
2.89415	  0.003524	  0.005570	  0.001552	
2.92742	  0.003468	  0.005649	  0.001548	
2.96069	  0.003405	  0.005731	  0.001546	
2.99395	  0.003328	  0.005800	  0.001547	
3.02722	  0.003231	  0.005850	  0.001554	
3.06048	  0.003121	  0.005867	  0.001568	
3.09375	  0.003025	  0.005852	  0.001582	
3.12702	  0.002962	  0.005810	  0.001590	
3.16028	  0.002937	  0.005742	  0.001592	
3.19355	  0.002953	  0.005672	  0.001595	
3.22681	  0.003006	  0.005616	  0.001600	
3.26008	  0.003077	  0.005578	  0.001606	
3.29335	  0.003141	  0.005562	  0.001604	
3.32661	  0.003179	  0.005563	  0.001599	
3.35988	  0.003186	  0.005565	  0.001595	
3.39315	  0.003171	  0.005557	  0.001596	
3.42641	  0.003147	  0.005536	  0.001603	
3.45968	  0.003132	  0.005500	  0.001615	
3.49294	  0.003137	  0.005465	  0.001626	
3.52621	  0.003162	  0.005445	  0.001631	
3.55948	  0.003206	  0.005451	  0.001631	
3.59274	  0.003261	  0.005494	  0.001633	
3.62601	  0.003326	  0.005575	  0.001637	
3.65927	  0.003411	  0.005677	  0.001641	
3.69254	  0.003527	  0.005783	  0.001645	
3.72581	  0.003691	  0.005883	  0.001649	
3.75907	  0.003924	  0.005983	  0.001651	
3.79234	  0.004233	  0.006092	  0.001654	
3.8256	  0.004598	  0.006207	  0.001659	
3.85887	  0.004979	  0.006316	  0.001664	
3.89214	  0.005313	  0.006393	  0.001669	
3.9254	  0.005492	  0.006413	  0.001677	
3.95867	  0.005403	  0.006354	  0.001689	
3.99194	  0.005111	  0.006225	  0.001700	
4.0252	  0.004746	  0.006051	  0.001705	
4.05847	  0.004394	  0.005869	  0.001702	
4.09173	  0.004103	  0.005712	  0.001690	
4.125	  0.003887	  0.005590	  0.001667	
4.15827	  0.003736	  0.005504	  0.001638	
4.19153	  0.003625	  0.005461	  0.001612	
4.2248	  0.003541	  0.005466	  0.001598	
4.25806	  0.003476	  0.005515	  0.001601	
4.29133	  0.003423	  0.005587	  0.001626	
4.3246	  0.003380	  0.005652	  0.001677	
4.35786	  0.003340	  0.005691	  0.001762	
4.39113	  0.003285	  0.005700	  0.001890	
4.4244	  0.003211	  0.005670	  0.002063	
4.45766	  0.003132	  0.005601	  0.002275	
4.49093	  0.003055	  0.005519	  0.002507	
4.52419	  0.002992	  0.005449	  0.002728	
4.55746	  0.002959	  0.005396	  0.002883	
4.59073	  0.002966	  0.005352	  0.002883	
4.62399	  0.003005	  0.005305	  0.002607	
4.65726	  0.003066	  0.005226	  0.001899	
4.69052	  0.003133	  0.005076	  0.000574	
4.72379	  0.003174	  0.004816	 -0.001557	
4.75706	  0.003153	  0.004405	 -0.004650	
4.79032	  0.003052	  0.003784	 -0.008761	
4.82359	  0.002874	  0.002918	 -0.013762	
4.85685	  0.002632	  0.001820	 -0.019215	
4.89012	  0.002366	  0.000583	 -0.024221	
4.92339	  0.002137	 -0.000580	 -0.027267	
4.95665	  0.002041	 -0.001293	 -0.026082	
4.98992	  0.002209	 -0.000999	 -0.017562	
5.02319	  0.002809	  0.001025	  0.002178	
5.05645	  0.004036	  0.005677	  0.037535	
5.08972	  0.006105	  0.013991	  0.092819	
5.12298	  0.009204	  0.026999	  0.171185	
5.15625	  0.013440	  0.045454	  0.272983	
5.18952	  0.018759	  0.069436	  0.393440	
5.22278	  0.024838	  0.097830	  0.520749	
5.25605	  0.031041	  0.128076	  0.639680	
5.28931	  0.036668	  0.157092	  0.738840	
5.32258	  0.041480	  0.183214	  0.816865	
5.35585	  0.045269	  0.204998	  0.876195	
5.38911	  0.047804	  0.221123	  0.920347	
5.42238	  0.048994	  0.230516	  0.951057	
5.45565	  0.049133	  0.233707	  0.968273	
5.48891	  0.048849	  0.233395	  0.972889	
5.52218	  0.048564	  0.232111	  0.969614	
5.55544	  0.048481	  0.231557	  0.961500	
5.58871	  0.048504	  0.231883	  0.948887	
5.62198	  0.048526	  0.232158	  0.933770	
5.65524	  0.048451	  0.231608	  0.919166	
5.68851	  0.048281	  0.230302	  0.906913	
5.72177	  0.048091	  0.228597	  0.894626	
5.75504	  0.047809	  0.225700	  0.879141	
5.78831	  0.047400	  0.221713	  0.863710	
5.82157	  0.046949	  0.217705	  0.849956	
5.85484	  0.046598	  0.214690	  0.836379	
5.8881	  0.046269	  0.212877	  0.823043	
5.92137	  0.045718	  0.210887	  0.807860	
5.95464	  0.044715	  0.206707	  0.788920	
5.9879	  0.043227	  0.199431	  0.765892	
6.02117	  0.041446	  0.190239	  0.741694	
6.05444	  0.039814	  0.181521	  0.720792	
6.0877	  0.038686	  0.175630	  0.705751	
6.12097	  0.038203	  0.173084	  0.700196	
6.15423	  0.038195	  0.173228	  0.706585	
6.1875	  0.038161	  0.173783	  0.722200	
6.22077	  0.037863	  0.173029	  0.743394	
6.25403	  0.037406	  0.171511	  0.766545	
6.2873	  0.036837	  0.169778	  0.787902	
6.32056	  0.036061	  0.167386	  0.802847	
6.35383	  0.035062	  0.164098	  0.806405	
6.3871	  0.034197	  0.160827	  0.801345	
6.42036	  0.033719	  0.157888	  0.793122	
6.45363	  0.033790	  0.155377	  0.783612	
6.4869	  0.034460	  0.154396	  0.776149	
6.52016	  0.035754	  0.155640	  0.774618	
6.55343	  0.037436	  0.158970	  0.780628	
6.58669	  0.039016	  0.163836	  0.792313	
6.61996	  0.040003	  0.169236	  0.806468	
6.65323	  0.040429	  0.174866	  0.819311	
6.68649	  0.040612	  0.179858	  0.830583	
6.71976	  0.040761	  0.183381	  0.841608	
6.75302	  0.040820	  0.185727	  0.853053	
6.78629	  0.040548	  0.186587	  0.862128	
6.81956	  0.039977	  0.185809	  0.863788	
6.85282	  0.039275	  0.183633	  0.857025	
6.88609	  0.038470	  0.180253	  0.841413	
6.91935	  0.037502	  0.176428	  0.817847	
6.95262	  0.036505	  0.172792	  0.789003	
6.98589	  0.035638	  0.169704	  0.760936	
7.01915	  0.034929	  0.167644	  0.737249	
7.05242	  0.034460	  0.167031	  0.717664	
7.08569	  0.034184	  0.167193	  0.700465	
7.11895	  0.034022	  0.167185	  0.686380	
7.15222	  0.033993	  0.167504	  0.675101	
7.18548	  0.034188	  0.169016	  0.664150	
7.21875	  0.034683	  0.171766	  0.651026	
7.25202	  0.035369	  0.174889	  0.635498	
7.28528	  0.036163	  0.177754	  0.621579	
7.31855	  0.036935	  0.180724	  0.612668	
7.35181	  0.037701	  0.184591	  0.608278	
7.38508	  0.038416	  0.188469	  0.607974	
7.41835	  0.039020	  0.190735	  0.613617	
7.45161	  0.039335	  0.189726	  0.623981	
7.48488	  0.039268	  0.185781	  0.633722	
7.51815	  0.038706	  0.181070	  0.639900	
7.55141	  0.037657	  0.177194	  0.643543	
7.58468	  0.036364	  0.174770	  0.647496	
7.61794	  0.035015	  0.173661	  0.654345	
7.65121	  0.033719	  0.173895	  0.665669	
7.68448	  0.032558	  0.174232	  0.682054	
7.71774	  0.031793	  0.173720	  0.704976	
7.75101	  0.031720	  0.173707	  0.732451	
7.78427	  0.032497	  0.176867	  0.760557	
7.81754	  0.034143	  0.184406	  0.785490	
7.85081	  0.036544	  0.195579	  0.805758	
7.88407	  0.039286	  0.207821	  0.822490	
7.91734	  0.042003	  0.218141	  0.838240	
7.9506	  0.044303	  0.224583	  0.854136	
7.98387	  0.045896	  0.226021	  0.867409	
8.01714	  0.046793	  0.223146	  0.875124	
8.0504	  0.047087	  0.217997	  0.878562	
8.08367	  0.046937	  0.212474	  0.882303	
8.11694	  0.046572	  0.206766	  0.888544	
8.1502	  0.046093	  0.200836	  0.891664	
8.18347	  0.045714	  0.195545	  0.884843	
8.21673	  0.045595	  0.190903	  0.865089	
8.25	  0.045627	  0.186717	  0.835093	
8.28327	  0.045559	  0.182734	  0.797609	
8.31653	  0.045260	  0.179174	  0.758227	
8.3498	  0.044738	  0.176789	  0.724902	
8.38306	  0.044061	  0.175767	  0.700304	
8.41633	  0.043368	  0.175729	  0.682224	
8.4496	  0.042717	  0.175680	  0.668920	
8.48286	  0.042106	  0.174642	  0.658501	
8.51613	  0.041529	  0.172674	  0.650797	
8.5494	  0.040977	  0.170096	  0.646306	
8.58266	  0.040674	  0.168027	  0.647444	
8.61593	  0.040744	  0.167554	  0.655487	
8.64919	  0.041196	  0.168937	  0.670348	
8.68246	  0.042085	  0.172079	  0.689423	
8.71573	  0.043383	  0.176668	  0.710740	
8.74899	  0.044902	  0.182112	  0.733590	
8.78226	  0.046420	  0.188415	  0.756663	
8.81552	  0.047825	  0.195646	  0.776197	
8.84879	  0.049158	  0.203148	  0.793421	
8.88206	  0.050445	  0.209979	  0.813623	
8.91532	  0.051600	  0.215421	  0.836979	
8.94859	  0.052482	  0.219125	  0.859440	
8.98185	  0.052882	  0.220104	  0.877244	
9.01512	  0.052975	  0.218749	  0.887680	
9.04839	  0.052896	  0.216296	  0.889368	
9.08165	  0.052694	  0.213671	  0.880004	
9.11492	  0.052375	  0.211075	  0.856982	
9.14819	  0.051887	  0.207746	  0.821241	
9.18145	  0.051344	  0.203711	  0.780156	
9.21472	  0.050601	  0.198889	  0.740399	
9.24798	  0.049697	  0.193376	  0.706964	
9.28125	  0.048843	  0.187283	  0.683468	
9.31452	  0.048115	  0.180532	  0.669159	
9.34778	  0.047614	  0.174759	  0.662811	
9.38105	  0.047380	  0.172076	  0.664614	
9.41431	  0.047562	  0.173400	  0.674939	
9.44758	  0.048119	  0.178235	  0.691758	
9.48085	  0.048971	  0.185137	  0.712267	
9.51411	  0.050012	  0.192341	  0.736988	
9.54738	  0.051211	  0.199036	  0.764505	
9.58065	  0.052330	  0.204948	  0.789613	
9.61391	  0.052901	  0.209467	  0.807011	
9.64718	  0.052454	  0.211200	  0.812382	
9.68044	  0.051061	  0.210088	  0.807838	
9.71371	  0.049064	  0.206741	  0.799130	
9.74698	  0.046652	  0.201394	  0.786838	
9.78024	  0.043878	  0.193926	  0.767638	
9.81351	  0.040630	  0.182893	  0.735611	
9.84677	  0.036959	  0.167297	  0.685221	
9.88004	  0.032906	  0.148343	  0.615144	
9.91331	  0.028484	  0.126730	  0.526785	
9.94657	  0.023711	  0.102855	  0.424889	
9.97984	  0.018823	  0.079028	  0.319588	
10.0131	  0.014293	  0.057788	  0.222491	
10.0464	  0.010492	  0.040501	  0.141212	
10.0796	  0.007548	  0.027327	  0.078631	
